<svg version="1.0" xmlns="http://www.w3.org/2000/svg"
 width="1024" height="1024" viewBox="123 114 763 763"
 preserveAspectRatio="xMidYMid meet">
<g transform="translate(0.000000,1024.000000) scale(0.100000,-0.100000)"
fill="#ffffff" stroke="none">
<path d="M5195 8709 c-401 -39 -757 -201 -1039 -476 -165 -161 -275 -322 -361
-528 -100 -238 -131 -386 -175 -820 -36 -359 -53 -503 -81 -670 -58 -349 -160
-743 -278 -1072 -147 -408 -396 -903 -619 -1228 -73 -107 -102 -146 -198 -270
-44 -57 -46 -62 -42 -113 8 -95 79 -143 265 -178 117 -22 363 -14 551 19 72
12 132 19 132 14 0 -22 -55 -161 -105 -262 -172 -354 -439 -645 -776 -845
-127 -76 -169 -116 -169 -164 0 -87 50 -124 221 -160 403 -87 938 -136 1492
-136 462 0 891 39 1270 117 151 31 186 35 216 26 210 -63 315 -85 566 -119
154 -21 659 -30 812 -14 143 15 290 50 349 85 156 92 84 304 -141 415 -78 38
-231 82 -330 95 -79 10 -81 13 -23 51 205 138 421 375 571 626 289 485 389
1084 276 1660 -78 400 -211 759 -484 1308 -178 358 -206 439 -206 600 0 166
51 285 191 441 109 122 268 234 508 360 155 81 202 119 202 163 0 68 -47 90
-311 145 -210 44 -286 64 -393 105 -127 48 -174 83 -356 261 -141 139 -199
188 -300 255 -381 252 -782 352 -1235 309z m457 -288 c221 -38 440 -129 620
-258 45 -32 152 -126 237 -209 86 -82 178 -165 204 -183 84 -57 228 -118 372
-156 77 -21 141 -38 142 -39 2 -1 -48 -35 -110 -76 -149 -97 -341 -288 -406
-404 -118 -209 -148 -424 -90 -650 29 -115 81 -239 217 -516 271 -557 383
-877 449 -1286 24 -151 24 -508 0 -649 -67 -380 -208 -701 -432 -980 -229
-284 -552 -505 -974 -665 -726 -274 -1698 -362 -2655 -240 -150 20 -426 67
-434 74 -1 2 17 15 41 29 142 84 297 220 412 362 202 251 338 525 441 886 3 9
17 21 32 27 15 6 86 32 157 57 574 208 960 593 1149 1147 88 257 131 593 107
822 -14 128 -31 175 -77 215 -44 39 -88 47 -141 26 -75 -30 -78 -41 -75 -280
7 -492 -106 -857 -365 -1178 -109 -134 -218 -233 -363 -328 -330 -217 -836
-369 -1231 -369 -99 0 -113 6 -83 31 49 41 235 328 358 554 219 401 382 798
502 1219 127 448 176 720 239 1331 56 545 91 711 190 920 97 202 276 416 448
534 154 105 354 189 532 224 115 23 123 24 307 26 124 1 194 -4 280 -18z m866
-6171 c224 -25 422 -85 422 -129 0 -87 -521 -119 -885 -56 -121 21 -130 28
-65 50 29 10 125 46 214 81 88 35 174 64 189 64 15 0 71 -5 125 -10z M5970
7751 c-57 -11 -122 -53 -155 -99 -27 -40 -30 -51 -30 -121 0 -69 3 -83 30
-127 40 -64 122 -109 199 -107 131 2 229 98 229 224 0 146 -132 257 -273 230z"/>
</g>
</svg>
